<svg width="222" height="43" fill="none" xmlns="http://www.w3.org/2000/svg"><path d="M68.016 20.046h-5.73l-.03-2.406h5.2c.86 0 1.61-.145 2.252-.435.641-.29 1.138-.704 1.49-1.242.362-.549.544-1.2.544-1.956 0-.828-.16-1.501-.482-2.018-.31-.528-.791-.911-1.444-1.15-.641-.248-1.459-.372-2.453-.372h-4.409V30.62h-2.996V8.014h7.405c1.16 0 2.195.12 3.106.357.91.228 1.681.59 2.313 1.087a4.626 4.626 0 011.46 1.863c.33.755.496 1.661.496 2.717 0 .931-.238 1.775-.714 2.53-.476.746-1.139 1.356-1.987 1.832-.839.477-1.822.782-2.95.916l-1.072.73zm-.14 10.573h-6.77L62.8 28.18h5.077c.952 0 1.76-.165 2.422-.497.672-.33 1.185-.797 1.537-1.397.352-.61.528-1.33.528-2.158 0-.838-.15-1.563-.45-2.173-.3-.611-.772-1.082-1.413-1.413-.642-.331-1.47-.497-2.484-.497h-4.27l.031-2.406h5.838l.636.87c1.087.092 2.008.403 2.764.93a5.062 5.062 0 011.723 1.988c.403.807.605 1.697.605 2.67 0 1.408-.31 2.598-.931 3.57-.61.963-1.475 1.698-2.593 2.205-1.118.497-2.432.746-3.943.746zm10.697-8.213v-.357c0-1.211.176-2.334.527-3.37.352-1.044.86-1.95 1.522-2.716a6.788 6.788 0 012.406-1.801c.942-.435 1.998-.652 3.167-.652 1.18 0 2.241.217 3.183.652a6.754 6.754 0 012.422 1.801c.673.766 1.185 1.671 1.537 2.717.352 1.035.528 2.158.528 3.369v.357c0 1.21-.176 2.334-.528 3.369a8.061 8.061 0 01-1.537 2.717 7.042 7.042 0 01-2.406 1.8c-.932.425-1.988.637-3.168.637-1.18 0-2.24-.212-3.182-.636a7.2 7.2 0 01-2.422-1.801 8.206 8.206 0 01-1.522-2.717c-.351-1.035-.527-2.158-.527-3.37zm2.872-.357v.357c0 .838.098 1.63.295 2.375.196.735.491 1.387.885 1.956a4.48 4.48 0 001.506 1.351c.6.32 1.299.481 2.095.481.787 0 1.475-.16 2.065-.48a4.335 4.335 0 001.49-1.352c.394-.569.689-1.22.886-1.956.207-.745.31-1.537.31-2.375v-.357a8.61 8.61 0 00-.31-2.345 6.037 6.037 0 00-.9-1.971 4.28 4.28 0 00-1.491-1.366c-.59-.332-1.284-.497-2.08-.497-.787 0-1.48.165-2.081.497a4.468 4.468 0 00-1.49 1.366 6.233 6.233 0 00-.885 1.971 9.034 9.034 0 00-.295 2.345zm15.26.357v-.357c0-1.211.177-2.334.529-3.37.352-1.044.859-1.95 1.521-2.716a6.789 6.789 0 012.407-1.801c.941-.435 1.997-.652 3.167-.652 1.18 0 2.241.217 3.182.652a6.744 6.744 0 012.422 1.801c.673.766 1.185 1.671 1.537 2.717.352 1.035.528 2.158.528 3.369v.357c0 1.21-.176 2.334-.528 3.369a8.058 8.058 0 01-1.537 2.717 7.035 7.035 0 01-2.406 1.8c-.932.425-1.987.637-3.167.637-1.18 0-2.241-.212-3.183-.636a7.2 7.2 0 01-2.422-1.801 8.206 8.206 0 01-1.521-2.717c-.352-1.035-.528-2.158-.528-3.37zm2.873-.357v.357c0 .838.098 1.63.295 2.375.197.735.492 1.387.885 1.956.404.57.906 1.02 1.506 1.351.6.32 1.299.481 2.096.481.786 0 1.475-.16 2.065-.48a4.334 4.334 0 001.49-1.352c.393-.569.688-1.22.885-1.956.207-.745.31-1.537.31-2.375v-.357a8.61 8.61 0 00-.31-2.345 6.038 6.038 0 00-.901-1.971 4.278 4.278 0 00-1.49-1.366c-.59-.332-1.283-.497-2.08-.497-.787 0-1.48.165-2.081.497a4.469 4.469 0 00-1.49 1.366 6.25 6.25 0 00-.885 1.971 9.038 9.038 0 00-.295 2.345zm18.879-4.89v13.46h-2.888V13.82h2.732l.156 3.338zm-.59 4.424l-1.336-.046c.011-1.15.161-2.21.451-3.183.289-.983.719-1.837 1.288-2.562a5.73 5.73 0 012.127-1.676c.849-.404 1.832-.606 2.95-.606a6.64 6.64 0 012.173.341 4.384 4.384 0 011.724 1.04c.486.477.864 1.088 1.133 1.833.269.745.404 1.645.404 2.701V30.62h-2.872V19.565c0-.88-.15-1.584-.451-2.112a2.566 2.566 0 00-1.242-1.148c-.538-.249-1.169-.373-1.894-.373-.848 0-1.557.15-2.127.45-.569.3-1.024.714-1.366 1.242a5.602 5.602 0 00-.745 1.817 10.151 10.151 0 00-.217 2.142zM128.75 20l-1.925.59a8.44 8.44 0 01.45-2.655 7.22 7.22 0 011.288-2.267 6.108 6.108 0 012.096-1.568c.828-.393 1.775-.59 2.841-.59.901 0 1.698.119 2.391.357a4.322 4.322 0 011.77 1.102c.487.487.854 1.113 1.102 1.879.249.766.373 1.677.373 2.732v11.04h-2.888V19.55c0-.942-.15-1.671-.45-2.189a2.348 2.348 0 00-1.242-1.102c-.528-.217-1.159-.326-1.894-.326-.631 0-1.19.109-1.677.326a3.466 3.466 0 00-1.226.9 3.936 3.936 0 00-.761 1.289A4.8 4.8 0 00128.75 20zm21.704 10.93c-1.17 0-2.231-.197-3.183-.59a7.212 7.212 0 01-2.437-1.693 7.52 7.52 0 01-1.553-2.577c-.362-.994-.543-2.08-.543-3.26v-.652c0-1.367.202-2.583.605-3.649.404-1.076.953-1.987 1.646-2.732a7.043 7.043 0 012.36-1.693 6.777 6.777 0 012.732-.574c1.201 0 2.236.207 3.105.621a5.66 5.66 0 012.158 1.739c.559.735.973 1.604 1.242 2.608.269.994.404 2.08.404 3.26v1.289h-12.544v-2.344h9.672v-.218a7.185 7.185 0 00-.466-2.173 3.911 3.911 0 00-1.242-1.74c-.569-.454-1.346-.682-2.329-.682a3.91 3.91 0 00-1.801.419 3.835 3.835 0 00-1.412 1.21c-.394.54-.699 1.196-.916 1.973-.218.776-.327 1.671-.327 2.685v.652c0 .797.109 1.548.327 2.252.227.693.553 1.304.978 1.832a4.7 4.7 0 001.568 1.242c.621.3 1.324.45 2.111.45 1.014 0 1.873-.207 2.577-.621a6.384 6.384 0 001.848-1.661l1.739 1.381a8.058 8.058 0 01-1.382 1.568c-.559.497-1.247.9-2.065 1.211-.807.31-1.765.466-2.872.466zm12.761-14.47v14.159h-2.872V13.82h2.795l.077 2.64zm5.248-2.733l-.016 2.67a4.138 4.138 0 00-.683-.092 7.26 7.26 0 00-.714-.032c-.662 0-1.247.104-1.754.311a3.639 3.639 0 00-1.289.87 4.18 4.18 0 00-.838 1.334 6.4 6.4 0 00-.388 1.677l-.808.466c0-1.014.099-1.966.295-2.857.207-.89.523-1.676.947-2.36a4.644 4.644 0 011.615-1.614c.662-.393 1.449-.59 2.36-.59.207 0 .445.026.714.078.269.041.455.088.559.14zm11.939 14.02v-8.648c0-.662-.135-1.237-.404-1.723a2.642 2.642 0 00-1.18-1.15c-.528-.268-1.18-.403-1.956-.403-.725 0-1.361.124-1.91.373-.538.248-.962.574-1.273.978-.3.404-.45.838-.45 1.304h-2.872c0-.6.155-1.195.466-1.785.31-.59.755-1.123 1.335-1.6.59-.486 1.294-.869 2.111-1.148.828-.29 1.749-.435 2.764-.435 1.221 0 2.297.207 3.229.621.942.414 1.677 1.04 2.205 1.878.538.828.807 1.869.807 3.121v7.825c0 .559.046 1.154.14 1.785.103.632.253 1.175.45 1.63v.249h-2.997c-.144-.331-.258-.771-.341-1.32a10.613 10.613 0 01-.124-1.552zm.497-7.313l.031 2.018h-2.904c-.817 0-1.547.068-2.189.202-.641.125-1.18.316-1.614.575a2.732 2.732 0 00-.994.978c-.228.383-.341.833-.341 1.35 0 .528.119 1.01.357 1.444a2.59 2.59 0 001.071 1.04c.486.249 1.081.373 1.785.373.88 0 1.656-.186 2.329-.559.673-.372 1.206-.828 1.599-1.366.404-.538.621-1.06.652-1.568l1.227 1.382c-.073.434-.269.916-.59 1.444a6.916 6.916 0 01-1.289 1.521 6.956 6.956 0 01-1.894 1.195c-.724.31-1.542.466-2.453.466-1.138 0-2.137-.222-2.996-.667-.849-.445-1.511-1.04-1.987-1.786a4.724 4.724 0 01-.699-2.53c0-.9.176-1.693.528-2.376a4.589 4.589 0 011.521-1.723c.663-.466 1.46-.818 2.391-1.056.932-.238 1.972-.357 3.121-.357h3.338zm9.765-3.027v13.212h-2.872V13.82h2.717l.155 3.587zm-.683 4.176l-1.196-.046c.011-1.15.181-2.21.513-3.183.331-.983.797-1.837 1.397-2.562a6.22 6.22 0 012.142-1.676c.839-.404 1.765-.606 2.779-.606.828 0 1.574.114 2.236.341.662.218 1.226.57 1.692 1.056.476.487.839 1.118 1.087 1.894.248.766.373 1.703.373 2.81V30.62h-2.888V19.58c0-.88-.13-1.583-.388-2.111-.259-.538-.637-.926-1.134-1.165-.496-.248-1.107-.372-1.832-.372-.714 0-1.366.15-1.956.45-.579.3-1.081.714-1.506 1.242a6.248 6.248 0 00-.978 1.817 6.656 6.656 0 00-.341 2.142zm26.268-7.762h2.608v16.44c0 1.48-.3 2.743-.9 3.789a5.865 5.865 0 01-2.515 2.375c-1.066.549-2.298.823-3.695.823-.58 0-1.263-.093-2.049-.28a8.25 8.25 0 01-2.298-.916 5.742 5.742 0 01-1.879-1.723l1.506-1.708c.704.85 1.439 1.44 2.205 1.77.776.331 1.542.497 2.298.497.91 0 1.697-.17 2.359-.512a3.57 3.57 0 001.537-1.522c.373-.662.559-1.48.559-2.453V17.515l.264-3.695zm-11.566 8.585v-.326c0-1.284.15-2.448.45-3.493.311-1.056.751-1.962 1.32-2.717a5.916 5.916 0 012.096-1.739c.817-.414 1.739-.621 2.763-.621 1.056 0 1.977.186 2.764.559a5.318 5.318 0 012.018 1.599c.559.693.999 1.532 1.32 2.515.32.983.543 2.096.667 3.338v1.428c-.114 1.232-.336 2.34-.667 3.323-.321.983-.761 1.821-1.32 2.515a5.526 5.526 0 01-2.018 1.599c-.797.362-1.729.543-2.795.543-1.004 0-1.915-.212-2.732-.636a6.222 6.222 0 01-2.081-1.786c-.579-.766-1.024-1.666-1.335-2.701-.3-1.046-.45-2.179-.45-3.4zm2.872-.326v.326c0 .838.083 1.625.249 2.36.175.735.439 1.381.791 1.94.363.56.823 1 1.382 1.32.559.31 1.227.466 2.003.466.952 0 1.739-.202 2.36-.606a4.377 4.377 0 001.474-1.599 9.218 9.218 0 00.87-2.158v-3.741a7.643 7.643 0 00-.528-1.646 5.087 5.087 0 00-.9-1.428 3.904 3.904 0 00-1.351-1.01c-.538-.248-1.17-.372-1.894-.372-.787 0-1.465.165-2.034.497a3.968 3.968 0 00-1.382 1.335c-.352.559-.616 1.21-.791 1.956a10.693 10.693 0 00-.249 2.36zM18.638 18.793c8-5.004 18.795-1.298 14.281 7.459-4.513 8.751-45.785-7.47-28.87.591 16.913 8.062 23.434 24.48 30.356 8.96 6.922-15.52 15.262-49.105-8.194-28.695-23.455 20.41-17.56 17.924-7.573 11.684z" fill="#777"/></svg>